<?xml version="1.0" standalone="no"?>
<!DOCTYPE svg PUBLIC "-//W3C//DTD SVG 20010904//EN"
 "http://www.w3.org/TR/2001/REC-SVG-20010904/DTD/svg10.dtd">
<svg version="1.0" xmlns="http://www.w3.org/2000/svg"
 width="3627.000000pt" height="3627.000000pt" viewBox="0 0 3627.000000 3627.000000"
 preserveAspectRatio="xMidYMid meet">
<metadata>
Created by potrace 1.14, written by Peter Selinger 2001-2017
</metadata>
<g transform="translate(0.000000,3627.000000) scale(0.100000,-0.100000)"
fill="#000000" stroke="none">
<path d="M30748 29815 c-2 -2 -104 -6 -228 -10 -124 -4 -250 -8 -280 -10 -98
-5 -264 -15 -320 -20 -143 -12 -179 -15 -238 -20 -34 -2 -81 -7 -105 -10 -23
-2 -64 -7 -92 -10 -88 -9 -327 -40 -395 -50 -14 -2 -45 -7 -70 -10 -25 -3 -97
-15 -160 -26 -63 -11 -126 -22 -140 -24 -42 -6 -93 -16 -140 -26 -25 -6 -58
-13 -75 -16 -70 -11 -314 -67 -495 -114 -107 -28 -202 -52 -210 -54 -116 -28
-704 -218 -865 -279 -181 -70 -486 -190 -522 -207 -24 -10 -45 -19 -47 -19 -5
0 -318 -136 -405 -177 -31 -14 -85 -39 -121 -55 -128 -59 -468 -225 -559 -274
-24 -12 -26 -10 -79 79 -30 51 -64 108 -75 127 -11 19 -137 235 -280 480 -143
245 -267 457 -275 473 -7 15 -18 27 -24 27 -5 0 -131 -71 -279 -157 -148 -87
-277 -162 -286 -168 -48 -26 -193 -111 -233 -136 -25 -15 -61 -36 -80 -47 -37
-20 -630 -367 -763 -446 -43 -25 -81 -46 -83 -46 -3 0 -17 -9 -32 -19 -15 -10
-210 -126 -433 -256 l-407 -237 47 -82 c26 -44 59 -100 74 -123 15 -24 27 -45
27 -47 0 -2 26 -49 59 -103 116 -195 191 -324 191 -329 0 -3 14 -25 30 -49 17
-24 30 -46 30 -48 0 -2 54 -96 120 -208 66 -112 120 -209 120 -215 0 -6 -10
-16 -22 -22 -27 -14 -61 -35 -68 -42 -3 -3 -54 -39 -115 -80 -494 -334 -1082
-795 -1475 -1155 -79 -73 -537 -530 -595 -595 -121 -135 -195 -218 -221 -250
-16 -19 -31 -37 -34 -40 -3 -3 -25 -30 -50 -60 -25 -30 -47 -57 -51 -60 -39
-34 -367 -475 -530 -715 -137 -200 -452 -701 -482 -765 -4 -8 -21 -37 -37 -65
-17 -27 -49 -83 -71 -122 -22 -40 -45 -75 -50 -79 -5 -3 -9 -14 -9 -24 0 -10
-4 -20 -8 -22 -5 -1 -25 -32 -44 -68 -20 -36 -71 -128 -113 -205 -117 -212
-144 -262 -193 -355 -24 -47 -57 -107 -72 -135 -45 -82 -171 -323 -318 -604
-41 -79 -68 -140 -61 -135 8 4 66 48 129 97 63 48 126 96 139 105 12 9 55 42
95 72 39 31 87 67 106 80 19 13 37 27 40 30 3 3 95 73 205 154 271 201 288
214 300 224 14 11 500 363 557 404 26 18 105 73 175 123 70 49 130 92 133 95
3 3 23 17 45 32 22 14 90 61 150 103 95 66 833 560 875 585 8 5 45 29 81 52
36 24 73 48 82 53 9 6 65 41 124 79 293 189 1278 788 1588 966 61 35 117 69
125 75 8 7 35 24 60 37 25 14 189 109 364 212 175 103 322 183 326 179 10 -12
100 -163 100 -169 0 -2 11 -21 24 -42 22 -35 175 -295 459 -782 66 -113 149
-254 185 -315 35 -60 78 -135 95 -165 17 -30 42 -73 55 -95 25 -39 98 -163
149 -254 14 -24 37 -55 51 -68 22 -21 353 -339 491 -473 31 -30 162 -156 290
-280 129 -124 239 -230 246 -237 10 -9 37 3 123 53 61 35 114 64 119 64 4 0
71 -107 149 -238 442 -743 709 -1191 729 -1222 22 -35 460 -767 481 -805 6
-11 43 -73 82 -138 40 -65 72 -120 72 -122 0 -2 13 -23 29 -47 15 -24 43 -70
61 -103 18 -33 36 -62 40 -65 4 -3 13 -16 20 -30 19 -36 477 -806 515 -865 18
-27 34 -54 36 -60 2 -5 105 -179 229 -385 123 -206 230 -384 236 -395 6 -11
116 -195 244 -410 129 -214 245 -410 259 -433 52 -87 65 -109 150 -252 48 -80
222 -370 386 -645 163 -275 319 -535 346 -578 27 -43 49 -80 49 -82 0 -3 24
-45 54 -93 59 -97 483 -806 500 -837 6 -11 19 -31 27 -45 9 -14 117 -193 239
-398 142 -239 219 -377 213 -383 -5 -5 -28 -20 -49 -32 -137 -76 -164 -93
-164 -101 0 -10 159 -287 252 -439 27 -43 48 -80 48 -83 0 -2 18 -33 40 -69
22 -36 40 -68 40 -71 0 -3 14 -25 30 -49 17 -24 30 -46 30 -49 0 -4 23 -43 50
-87 28 -44 50 -82 50 -84 0 -2 21 -39 46 -82 87 -146 457 -778 482 -823 14
-25 40 -69 59 -98 18 -29 33 -54 33 -56 0 -2 97 -170 216 -372 119 -203 228
-389 242 -414 14 -25 35 -61 47 -80 12 -19 33 -55 47 -80 14 -25 69 -119 122
-209 53 -90 96 -166 96 -168 0 -3 8 -17 19 -31 16 -24 102 -170 153 -262 30
-53 80 -130 84 -130 2 0 125 71 272 157 147 86 359 210 472 276 113 66 219
128 235 138 17 10 37 22 45 26 8 4 69 39 135 78 66 39 158 94 205 121 46 27
94 54 105 61 11 7 27 15 35 19 8 4 38 22 65 39 28 17 93 56 145 86 52 29 104
59 115 66 11 7 39 22 63 35 23 12 42 27 42 32 0 6 -36 72 -80 146 -44 73 -80
135 -80 136 0 1 -28 49 -61 106 -59 99 -76 128 -118 201 -50 87 -169 289 -203
344 -21 34 -38 65 -38 68 0 3 -11 22 -23 43 -13 20 -94 156 -179 302 -85 146
-217 371 -293 500 -76 129 -147 251 -158 270 -11 19 -28 49 -38 65 -16 27 -33
56 -129 223 -17 29 -115 195 -217 370 -102 174 -194 331 -203 347 -88 151
-163 281 -196 335 -54 91 -63 107 -112 193 -24 42 -47 79 -52 82 -6 3 -64 -25
-129 -64 l-120 -70 -19 32 c-11 18 -200 336 -422 707 -221 371 -419 702 -439
735 -20 33 -40 68 -46 78 -5 9 -85 142 -176 295 -321 535 -564 942 -583 975
-10 17 -170 286 -356 597 -186 311 -346 579 -356 597 -11 18 -59 99 -108 180
-49 81 -262 438 -474 793 -212 355 -435 728 -496 830 -61 102 -118 197 -126
211 -8 15 -60 101 -115 193 -55 92 -108 181 -117 197 -10 16 -89 148 -175 292
-87 144 -163 271 -169 282 -6 11 -79 134 -162 274 -84 139 -152 257 -152 261
0 5 -4 10 -8 12 -8 3 -33 43 -80 128 -13 25 -31 52 -38 61 -8 8 -14 18 -14 21
0 3 -79 137 -176 299 -97 162 -188 314 -202 339 -14 25 -33 56 -42 70 -10 14
-27 42 -39 63 -11 20 -30 53 -41 73 -12 20 -19 39 -16 41 10 11 139 83 147 83
5 0 9 4 9 10 0 5 11 12 24 16 21 5 23 9 16 32 -8 26 -139 522 -145 552 -2 8
-22 87 -45 175 -23 88 -43 165 -44 170 -2 6 -8 30 -15 55 -7 25 -14 52 -16 60
-2 13 -36 140 -90 347 -12 45 -264 492 -406 720 -22 34 -39 64 -39 67 0 2 -52
93 -116 202 -64 110 -171 291 -237 404 -66 113 -129 221 -141 241 -99 169
-168 291 -165 292 53 35 90 57 93 57 2 0 40 21 83 46 79 48 92 55 198 116 33
19 179 104 325 188 146 85 283 164 306 176 22 12 58 33 80 46 21 14 64 38 94
55 57 31 145 81 475 268 105 59 224 125 265 147 41 22 80 44 85 48 6 4 44 25
85 47 41 22 125 67 185 100 61 33 146 80 190 103 44 24 100 54 125 68 82 44
273 145 435 229 176 91 916 460 1090 543 252 121 449 213 535 252 25 11 79 36
120 55 41 19 125 57 185 85 61 27 124 56 141 63 16 8 59 27 95 43 35 16 90 42
123 57 32 14 93 41 135 59 42 18 206 90 364 159 159 70 290 127 292 127 2 0
36 15 77 33 40 18 84 38 98 44 28 13 44 11 -160 18 -452 14 -674 18 -1152 20
-302 1 -549 1 -550 0z"/>
<path d="M12017 27994 c-1 -1 -74 -5 -162 -8 -243 -10 -410 -21 -630 -42 -112
-11 -152 -15 -187 -19 -21 -3 -55 -7 -75 -9 -90 -11 -149 -19 -167 -22 -10 -2
-44 -6 -75 -9 -31 -4 -63 -8 -71 -11 -8 -2 -35 -6 -60 -9 -25 -3 -81 -12 -125
-20 -44 -8 -96 -17 -115 -20 -19 -3 -57 -10 -85 -15 -27 -5 -63 -12 -80 -15
-16 -2 -73 -14 -125 -25 -52 -11 -106 -23 -120 -25 -65 -12 -88 -18 -365 -85
-228 -56 -642 -177 -805 -235 -36 -13 -137 -49 -225 -80 -88 -32 -178 -64
-200 -72 -22 -7 -49 -18 -60 -23 -11 -5 -56 -23 -100 -41 -347 -135 -832 -363
-1191 -559 -300 -165 -513 -294 -799 -483 -182 -120 -511 -351 -525 -367 -3
-3 -23 -19 -45 -35 -22 -17 -94 -72 -160 -125 -66 -52 -124 -98 -130 -102 -13
-10 -103 -84 -135 -112 -14 -11 -55 -46 -90 -76 -262 -221 -642 -582 -875
-831 -165 -176 -254 -275 -325 -359 -25 -29 -54 -63 -65 -75 -96 -100 -406
-499 -596 -765 -224 -312 -558 -839 -641 -1010 -7 -14 -22 -41 -33 -60 -49
-80 -325 -619 -325 -633 0 -3 -22 -51 -49 -108 -27 -57 -74 -165 -105 -239
-31 -74 -61 -144 -66 -155 -56 -125 -230 -602 -308 -845 -26 -81 -36 -114 -58
-195 -2 -5 -21 -73 -44 -150 -22 -77 -42 -149 -45 -160 -2 -11 -20 -82 -39
-158 -35 -138 -100 -421 -111 -487 -3 -19 -8 -42 -10 -50 -4 -14 -6 -25 -20
-105 -3 -16 -10 -52 -15 -80 -9 -49 -13 -71 -25 -149 -4 -21 -9 -48 -11 -60
-2 -11 -7 -41 -10 -66 -3 -25 -8 -52 -9 -60 -2 -9 -7 -43 -11 -75 -4 -33 -9
-62 -9 -65 -1 -3 -5 -36 -9 -75 -5 -38 -10 -78 -12 -87 -1 -9 -5 -48 -9 -85
-3 -37 -8 -79 -10 -93 -2 -14 -7 -56 -10 -95 -3 -38 -8 -83 -10 -100 -2 -16
-7 -77 -10 -135 -4 -58 -9 -125 -10 -150 -24 -304 -24 -1097 0 -1390 2 -25 6
-91 10 -147 3 -55 8 -112 10 -125 2 -12 6 -63 10 -113 4 -49 8 -99 10 -110 2
-11 7 -47 10 -80 4 -33 8 -73 10 -90 3 -16 9 -68 15 -115 11 -85 18 -133 25
-180 2 -14 7 -47 11 -75 3 -27 7 -52 9 -55 2 -3 6 -30 10 -60 4 -30 8 -57 10
-60 2 -3 6 -26 9 -50 8 -57 8 -58 56 -290 18 -85 36 -171 40 -190 4 -19 13
-57 18 -85 6 -27 27 -113 47 -190 20 -77 38 -149 40 -160 24 -109 223 -753
260 -840 7 -16 41 -106 75 -200 63 -171 209 -526 273 -665 19 -41 49 -106 67
-145 60 -132 225 -456 305 -600 314 -566 621 -1031 1002 -1517 67 -86 128
-162 135 -170 7 -7 39 -44 70 -83 31 -38 65 -79 75 -90 10 -11 41 -47 68 -80
28 -33 59 -69 70 -80 11 -11 38 -40 59 -65 176 -204 543 -570 876 -876 120
-110 386 -331 610 -508 151 -118 430 -320 620 -446 155 -103 399 -260 406
-260 2 0 27 -15 56 -34 29 -18 121 -72 203 -119 445 -253 869 -459 1315 -639
69 -28 139 -56 155 -63 55 -24 369 -137 515 -185 237 -79 571 -176 775 -226
243 -60 318 -77 403 -95 53 -11 106 -22 117 -25 11 -2 85 -15 165 -29 80 -15
165 -30 190 -35 45 -10 352 -54 445 -65 28 -3 64 -8 80 -10 17 -2 50 -7 75 -9
25 -3 65 -8 90 -10 25 -3 79 -8 120 -11 41 -4 91 -8 110 -10 19 -3 85 -7 145
-11 61 -3 121 -8 135 -10 44 -7 477 -18 690 -17 204 0 506 9 650 18 240 16
484 38 660 60 19 2 60 7 90 10 30 3 66 8 80 10 14 2 45 7 70 10 25 3 83 12
130 20 47 8 101 17 120 19 19 3 60 9 90 15 30 5 71 12 90 16 19 3 91 17 160
31 69 14 136 28 150 30 14 3 45 10 70 15 25 6 56 13 70 15 14 3 50 11 80 19
30 8 66 16 80 19 143 25 733 197 1005 293 55 19 120 41 145 50 25 8 54 19 65
24 11 5 47 18 80 30 33 12 71 26 85 32 14 6 30 11 35 12 17 4 446 185 525 222
41 19 116 53 165 76 50 23 178 86 285 141 107 54 209 106 225 114 17 8 42 24
58 34 15 11 27 17 27 14 0 -4 18 5 40 19 22 14 44 25 50 25 5 0 10 3 10 8 0 4
10 12 23 18 93 44 429 248 677 412 113 75 207 139 210 143 3 3 23 18 45 32
228 151 644 479 964 761 201 178 232 207 521 496 271 271 411 420 539 574 9
10 21 23 27 30 37 40 189 225 293 356 67 85 135 172 151 192 17 20 30 41 30
47 0 6 4 11 9 11 5 0 18 15 30 33 11 17 40 59 65 92 103 139 254 361 378 556
577 905 1014 1884 1308 2923 27 98 52 188 54 200 3 11 20 84 40 161 32 131 51
213 60 260 3 11 9 40 15 65 5 25 12 56 15 70 2 14 11 57 19 95 9 39 17 84 20
100 3 17 10 57 15 90 14 79 20 111 38 225 8 52 17 106 19 120 2 14 7 48 10 75
4 28 8 61 10 75 3 14 7 48 10 75 3 28 8 61 10 75 2 14 6 54 10 90 3 36 8 81
10 100 2 19 7 64 10 100 3 36 8 81 10 100 2 19 7 82 10 140 4 58 8 125 10 150
22 291 22 1043 0 1300 -2 19 -6 82 -10 140 -4 58 -8 121 -10 140 -2 19 -6 73
-10 120 -4 47 -8 92 -10 100 -2 8 -7 49 -10 90 -3 41 -8 82 -10 90 -2 8 -7 38
-10 65 -4 42 -30 231 -40 300 -9 58 -43 260 -50 295 -3 14 -7 34 -9 45 -2 11
-12 61 -21 110 -9 50 -19 101 -22 115 -7 41 -73 327 -78 342 -2 7 -6 25 -9 39
-6 38 -71 282 -128 479 -89 312 -231 724 -361 1045 -60 148 -117 284 -127 304
-5 9 -35 75 -67 146 -89 200 -254 529 -272 541 -9 7 -29 24 -46 39 -16 14 -46
38 -65 53 -37 29 -62 50 -125 106 -37 33 -41 34 -56 18 -9 -9 -105 -159 -214
-332 -462 -736 -415 -665 -442 -667 -10 -1 -56 -11 -103 -22 -96 -23 -382 -87
-420 -94 -14 -3 -56 -13 -95 -22 -38 -9 -79 -18 -90 -21 -41 -8 -64 -13 -220
-49 -88 -20 -171 -37 -185 -38 -14 0 -86 34 -160 75 -74 41 -178 98 -231 126
l-96 52 -164 -123 c-90 -67 -197 -146 -237 -175 l-72 -54 -72 12 c-83 13 -107
17 -163 25 -22 4 -94 15 -160 26 -287 48 -243 52 -375 -38 -63 -43 -214 -146
-335 -227 -121 -82 -227 -155 -236 -162 -23 -20 -35 -18 -92 19 -29 19 -96 62
-149 96 l-97 63 -11 56 c-6 32 -15 71 -20 87 -5 17 -12 44 -15 62 -3 17 -17
85 -31 150 -33 153 -33 154 -39 184 -2 14 -18 83 -34 155 -25 112 -39 180 -42
206 0 4 -7 31 -15 60 -11 45 -12 55 0 63 7 6 44 38 82 71 38 34 132 116 209
184 77 67 158 139 181 159 23 20 67 59 99 86 171 147 166 142 161 172 -3 16
-7 60 -11 98 -3 39 -8 86 -10 105 -2 19 -7 62 -10 95 -3 33 -8 74 -10 90 -2
17 -6 55 -9 85 -3 30 -10 98 -16 150 -6 52 -13 118 -16 145 -2 28 -7 66 -9 85
-8 70 -16 136 -20 185 -3 28 -7 70 -9 95 -3 25 -8 72 -11 105 -6 62 -11 102
-19 170 -3 22 -8 69 -11 105 -3 36 -8 81 -10 100 -2 19 -7 60 -10 90 -3 30 -8
71 -10 90 -2 19 -6 58 -9 85 -3 28 -8 73 -11 101 -6 55 -6 55 171 486 l44 107
-98 168 c-54 92 -111 187 -125 210 -15 24 -27 45 -27 47 0 2 -38 68 -84 146
l-84 142 85 137 c47 75 94 148 104 163 11 14 19 29 19 32 0 5 91 150 108 171
4 6 18 27 30 48 l22 38 -97 145 -97 145 -120 65 c-353 192 -865 431 -1186 554
-47 18 -98 38 -115 45 -64 28 -422 156 -475 170 -8 3 -100 32 -204 65 -398
127 -990 272 -1361 333 -16 3 -75 13 -130 22 -55 9 -111 18 -125 21 -39 7 -78
12 -170 24 -47 6 -96 13 -110 15 -31 5 -110 14 -170 20 -25 3 -63 7 -85 10
-22 3 -69 7 -105 10 -36 3 -81 7 -100 10 -73 9 -249 20 -495 31 -141 6 -743
12 -748 8z m5338 -3454 c3 -5 1 -10 -4 -10 -6 0 -11 5 -11 10 0 6 2 10 4 10 3
0 8 -4 11 -10z"/>
</g>
</svg>
